<?xml version="1.0" encoding="UTF-8"?>
<svg id="Camada_2" data-name="Camada 2" xmlns="http://www.w3.org/2000/svg" viewBox="0 0 560.78 150">
  <defs>
    <style>
      .cls-1 {
        fill: #e50914;
      }
    </style>
  </defs>
  <g id="Camada_1-2" data-name="Camada 1">
    <g>
      <path class="cls-1" d="M23.51,65.06c10.12-.65,20.25-1.26,30.38-1.83-.01,6.78-.02,13.55-.03,20.33-10.13.76-20.25,1.56-30.36,2.42-.02,20.15-.04,40.31-.05,60.46C15.62,147.58,7.81,148.76,0,150V0h62.36c-.01,6.73-.03,13.46-.04,20.18-12.92.23-25.85.47-38.77.74-.01,14.71-.03,29.43-.04,44.14Z"/>
      <path class="cls-1" d="M73.71,0h23.57c-.11,45.78-.22,91.56-.33,137.34-7.85.81-15.7,1.67-23.54,2.58.1-46.64.19-93.28.29-139.92Z"/>
      <path class="cls-1" d="M135.34,36.9c-.08,32.31-.16,64.62-.24,96.93-7.08.58-14.15,1.19-21.22,1.85.11-45.23.22-90.46.33-135.68h29.57c8.01,26.57,16.02,52.77,24.04,78.7.06-26.23.12-52.47.17-78.7h21c-.08,43.43-.17,86.85-.25,130.28-8.09.41-16.17.88-24.26,1.41-9.73-31.16-19.44-62.69-29.15-94.78Z"/>
      <path class="cls-1" d="M205.92,0h37.29c23.57,0,35.14,11.15,35.14,31.62,0,21.57,0,43.13,0,64.7,0,20.5-11.61,31.54-35.25,32-12.46.26-24.93.65-37.39,1.17.07-43.16.14-86.33.21-129.49ZM229.47,18.38c-.04,30.63-.07,61.27-.11,91.9,4.44-.11,8.88-.2,13.32-.28,7.52-.14,12.03-3.48,12.04-12.63.01-22.21.03-44.41.04-66.62,0-9.15-4.49-12.44-12-12.42-4.43.01-8.86.03-13.29.05Z"/>
      <path class="cls-1" d="M316.97,57.01c10.16.09,20.31.22,30.47.39,0,6.15.02,12.3.03,18.46-10.16-.22-20.32-.4-30.48-.52.02,17.66.03,35.32.05,52.97-7.88-.16-15.76-.27-23.64-.33-.01-42.66-.03-85.32-.04-127.98h62.36c.01,6.17.02,12.34.03,18.5-12.93-.08-25.87-.14-38.8-.17.01,12.89.02,25.78.03,38.68Z"/>
      <path class="cls-1" d="M367.07,0h23.57c.1,43.78.19,87.56.29,131.34-7.87-.49-15.74-.92-23.62-1.3-.08-43.35-.16-86.69-.24-130.04Z"/>
      <path class="cls-1" d="M407.78,0h23.57c.09,38.38.19,76.76.28,115.14,12.93.94,25.86,2,38.77,3.18.02,6.57.03,13.15.05,19.72-20.76-2.21-41.55-4.06-62.36-5.55-.1-44.16-.21-88.33-.31-132.49Z"/>
      <path class="cls-1" d="M559.06,0c-8.21,24.24-16.4,47.86-24.57,70.94,8.79,25.65,17.56,51.97,26.29,79.06-8.23-1.3-16.48-2.55-24.72-3.74-6.42-20.21-12.85-40.03-19.29-59.49-6.46,18.42-12.91,36.52-19.36,54.34-7.34-.9-14.68-1.74-22.03-2.55,8.72-22.79,17.44-46.02,26.17-69.77-8.25-23.43-16.5-46.33-24.77-68.8h24.43c5.96,17.4,11.92,35.07,17.86,53.04,6.04-17.38,12.08-35.05,18.14-53.04h21.86Z"/>
    </g>
  </g>
</svg>